# xmcd
#
# Track frame offsets:
#	150
#	12192
#	24127
#	35417
#	48660
#	60377
#	74470
#	88517
#	102375
#	116687
#	128987
#	142662
#	156267
#	168997
#	183255
#	197360
#	211595
#	224852
#	238325
#	251890
#	266502
#	278190
#	288797
#	301565
#	314740
#	328260
#
# Disc length: 4548 seconds
#
# Revision: 0
# Processed by: cddbd v1.5.1PL0 Copyright (c) Steve Scherf et al.
# Submitted via: dBpowerAMP V4.0
#
DISCID=7a11c21a
DTITLE=Various Blues (1927-1960) - To Late, To Late - Vol. 3
DYEAR=1994
DGENRE=Blues
TTITLE0=Buddy Boy Hawkins: Number Three Blues (take 1)
TTITLE1=Side Wheel Sally Duffie: Bunker Hill Blues
TTITLE2=Side Wheel Sally Duffie: Plantation Blues
TTITLE3=Memphis Jug Band: She Stays Out All Night Long (take 1)
TTITLE4=Lottie Kimbrough and Winston Holmes: Don't Speak To Me
TTITLE5=Jim Jackson: I'm Wild About My Lovin' (take 1)
TTITLE6=William Harris: Electric Chair Blues (Jefferson County Blues)
TTITLE7=William Harris: Bad Treated Blues
TTITLE8=Blind Lemon Jefferson: Big Night Blues (alt. take)
TTITLE9=Charley Patton: I Shall Not Be Moved (alt. take)
TTITLE10=Mississipi Sheiks: The Jazz Fiddler (take A)
TTITLE11=Memphis Minnie: Dirt Dauber Blues
TTITLE12=Memphis Minnie: You Dirty Mistreater
TTITLE13=Curley Weaver: No No Blues (12090-1)
TTITLE14=Curley Weaver: Early Morning Blues (12910)
TTITLE15=Tamapa Red: I'll Get A Break Some Day
TTITLE16=Joshua White: Cherry Picker
TTITLE17=Joshua White: Tweet Tweet Mama Blues
TTITLE18=Leadbelly: My Baby Quit Me (17183-1)
TTITLE19=Casey Bill Weldon: We Gonna Move (To The Outskirts Of Town) (take 2)
TTITLE20=Tampa Red: This Ain't No Place For Me
TTITLE21=Ida Parham: Untitled Blues
TTITLE22=Two Gospel Keys: If I Never See You Anymore
TTITLE23=Two Gospel Keys: Stranger, Don't Drive Me Crazy
TTITLE24=Jesse Thomas: Your Love Is Automatic
TTITLE25=Jesse Thomas: Rain Sleet or Snow
EXTD=
EXTT0=
EXTT1=
EXTT2=
EXTT3=
EXTT4=
EXTT5=
EXTT6=
EXTT7=
EXTT8=
EXTT9=
EXTT10=
EXTT11=
EXTT12=
EXTT13=
EXTT14=
EXTT15=
EXTT16=
EXTT17=
EXTT18=
EXTT19=
EXTT20=
EXTT21=
EXTT22=
EXTT23=
EXTT24=
EXTT25=
PLAYORDER=
